<mxfile host="65bd71144e" pages="3">
    <diagram id="WJWYRF3JW887FxR_2pt_" name="Components">
        <mxGraphModel dx="541" dy="1865" grid="1" gridSize="10" guides="1" tooltips="1" connect="1" arrows="1" fold="1" page="1" pageScale="1" pageWidth="850" pageHeight="1100" math="0" shadow="0">
            <root>
                <mxCell id="0"/>
                <mxCell id="1" parent="0"/>
                <mxCell id="JROARpgO5LGKM70FcoCZ-3" value="" style="rounded=1;whiteSpace=wrap;html=1;" parent="1" vertex="1">
                    <mxGeometry x="10" y="80" width="540" height="410" as="geometry"/>
                </mxCell>
                <mxCell id="NP-N_gkXr4D6js98mMwR-3" value="Port 27017" style="edgeStyle=orthogonalEdgeStyle;rounded=0;orthogonalLoop=1;jettySize=auto;html=1;exitX=0.5;exitY=1;exitDx=0;exitDy=0;entryX=0.5;entryY=0;entryDx=0;entryDy=0;" parent="1" source="NP-N_gkXr4D6js98mMwR-1" target="NP-N_gkXr4D6js98mMwR-2" edge="1">
                    <mxGeometry relative="1" as="geometry"/>
                </mxCell>
                <mxCell id="NP-N_gkXr4D6js98mMwR-1" value="Person / Contact Service" style="rounded=0;whiteSpace=wrap;html=1;" parent="1" vertex="1">
                    <mxGeometry x="40" y="104" width="200" height="160" as="geometry"/>
                </mxCell>
                <mxCell id="NP-N_gkXr4D6js98mMwR-2" value="Mongo DB&amp;nbsp;" style="shape=cylinder;whiteSpace=wrap;html=1;boundedLbl=1;backgroundOutline=1;" parent="1" vertex="1">
                    <mxGeometry x="80" y="344" width="120" height="110" as="geometry"/>
                </mxCell>
                <mxCell id="NP-N_gkXr4D6js98mMwR-8" value="Port 8080" style="edgeStyle=orthogonalEdgeStyle;rounded=1;orthogonalLoop=1;jettySize=auto;html=1;" parent="1" source="NP-N_gkXr4D6js98mMwR-7" target="NP-N_gkXr4D6js98mMwR-1" edge="1">
                    <mxGeometry relative="1" as="geometry"/>
                </mxCell>
                <mxCell id="5" value="Port 8081" style="edgeStyle=none;html=1;exitX=0.5;exitY=0.5;exitDx=0;exitDy=0;exitPerimeter=0;entryX=0.5;entryY=0;entryDx=0;entryDy=0;" parent="1" source="NP-N_gkXr4D6js98mMwR-7" target="3" edge="1">
                    <mxGeometry relative="1" as="geometry">
                        <Array as="points">
                            <mxPoint x="410" y="-40"/>
                        </Array>
                    </mxGeometry>
                </mxCell>
                <mxCell id="NP-N_gkXr4D6js98mMwR-7" value="REST Client (Open API 3.0)" style="shape=umlActor;verticalLabelPosition=bottom;labelBackgroundColor=#ffffff;verticalAlign=top;html=1;outlineConnect=0;" parent="1" vertex="1">
                    <mxGeometry x="260" y="-70" width="30" height="60" as="geometry"/>
                </mxCell>
                <mxCell id="2" value="Port 27017" style="edgeStyle=orthogonalEdgeStyle;rounded=0;orthogonalLoop=1;jettySize=auto;html=1;exitX=0.5;exitY=1;exitDx=0;exitDy=0;entryX=0.5;entryY=0;entryDx=0;entryDy=0;" parent="1" source="3" target="4" edge="1">
                    <mxGeometry relative="1" as="geometry"/>
                </mxCell>
                <mxCell id="3" value="Order Service" style="rounded=0;whiteSpace=wrap;html=1;" parent="1" vertex="1">
                    <mxGeometry x="310" y="104" width="200" height="160" as="geometry"/>
                </mxCell>
                <mxCell id="4" value="Mongo DB&amp;nbsp;" style="shape=cylinder;whiteSpace=wrap;html=1;boundedLbl=1;backgroundOutline=1;" parent="1" vertex="1">
                    <mxGeometry x="350" y="344" width="120" height="110" as="geometry"/>
                </mxCell>
            </root>
        </mxGraphModel>
    </diagram>
    <diagram id="ni5Q_OmJi7TH-G8R2E6y" name="Interactions-1">
        <mxGraphModel dx="1426" dy="747" grid="1" gridSize="10" guides="1" tooltips="1" connect="1" arrows="1" fold="1" page="1" pageScale="1" pageWidth="850" pageHeight="1100" math="0" shadow="0">
            <root>
                <mxCell id="v0MWP99bqKwrjfjMmXKz-0"/>
                <mxCell id="v0MWP99bqKwrjfjMmXKz-1" parent="v0MWP99bqKwrjfjMmXKz-0"/>
                <mxCell id="v0MWP99bqKwrjfjMmXKz-2" value="Order Service" style="shape=umlLifeline;perimeter=lifelinePerimeter;whiteSpace=wrap;html=1;container=1;collapsible=0;recursiveResize=0;outlineConnect=0;" vertex="1" parent="v0MWP99bqKwrjfjMmXKz-1">
                    <mxGeometry x="180" y="60" width="100" height="310" as="geometry"/>
                </mxCell>
                <mxCell id="0eTvIA4_t9a6uZhp-ybZ-2" value="" style="html=1;points=[];perimeter=orthogonalPerimeter;" vertex="1" parent="v0MWP99bqKwrjfjMmXKz-2">
                    <mxGeometry x="45" y="100" width="10" height="80" as="geometry"/>
                </mxCell>
                <mxCell id="0eTvIA4_t9a6uZhp-ybZ-3" value="POST Order" style="html=1;verticalAlign=bottom;endArrow=block;entryX=0;entryY=0;" edge="1" target="0eTvIA4_t9a6uZhp-ybZ-2" parent="v0MWP99bqKwrjfjMmXKz-2">
                    <mxGeometry relative="1" as="geometry">
                        <mxPoint x="-25" y="100" as="sourcePoint"/>
                    </mxGeometry>
                </mxCell>
                <mxCell id="0eTvIA4_t9a6uZhp-ybZ-4" value="Status" style="html=1;verticalAlign=bottom;endArrow=open;dashed=1;endSize=8;exitX=0;exitY=0.95;" edge="1" source="0eTvIA4_t9a6uZhp-ybZ-2" parent="v0MWP99bqKwrjfjMmXKz-2">
                    <mxGeometry relative="1" as="geometry">
                        <mxPoint x="-25" y="176" as="targetPoint"/>
                    </mxGeometry>
                </mxCell>
                <mxCell id="0eTvIA4_t9a6uZhp-ybZ-0" value="Contact Service" style="shape=umlLifeline;perimeter=lifelinePerimeter;whiteSpace=wrap;html=1;container=1;collapsible=0;recursiveResize=0;outlineConnect=0;" vertex="1" parent="v0MWP99bqKwrjfjMmXKz-1">
                    <mxGeometry x="360" y="60" width="100" height="310" as="geometry"/>
                </mxCell>
                <mxCell id="0eTvIA4_t9a6uZhp-ybZ-8" value="" style="html=1;points=[];perimeter=orthogonalPerimeter;" vertex="1" parent="0eTvIA4_t9a6uZhp-ybZ-0">
                    <mxGeometry x="45" y="115" width="10" height="55" as="geometry"/>
                </mxCell>
                <mxCell id="0eTvIA4_t9a6uZhp-ybZ-10" value="person" style="html=1;verticalAlign=bottom;endArrow=open;dashed=1;endSize=8;exitX=0;exitY=0.95;" edge="1" source="0eTvIA4_t9a6uZhp-ybZ-8" parent="v0MWP99bqKwrjfjMmXKz-1" target="0eTvIA4_t9a6uZhp-ybZ-2">
                    <mxGeometry relative="1" as="geometry">
                        <mxPoint x="335" y="251" as="targetPoint"/>
                    </mxGeometry>
                </mxCell>
                <mxCell id="0eTvIA4_t9a6uZhp-ybZ-9" value="/person/id" style="html=1;verticalAlign=bottom;endArrow=block;entryX=0;entryY=0;exitX=1.1;exitY=0.175;exitDx=0;exitDy=0;exitPerimeter=0;" edge="1" target="0eTvIA4_t9a6uZhp-ybZ-8" parent="v0MWP99bqKwrjfjMmXKz-1" source="0eTvIA4_t9a6uZhp-ybZ-2">
                    <mxGeometry relative="1" as="geometry">
                        <mxPoint x="335" y="175" as="sourcePoint"/>
                    </mxGeometry>
                </mxCell>
            </root>
        </mxGraphModel>
    </diagram>
    <diagram name="Interactions-2" id="Ni7D81_kBAN0IBUMCYxW">
        <mxGraphModel dx="1426" dy="747" grid="1" gridSize="10" guides="1" tooltips="1" connect="1" arrows="1" fold="1" page="1" pageScale="1" pageWidth="850" pageHeight="1100" math="0" shadow="0">
            <root>
                <mxCell id="aC9V_nt8UgBJcs76mvsp-0"/>
                <mxCell id="aC9V_nt8UgBJcs76mvsp-1" parent="aC9V_nt8UgBJcs76mvsp-0"/>
                <mxCell id="aC9V_nt8UgBJcs76mvsp-2" value="Order Service" style="shape=umlLifeline;perimeter=lifelinePerimeter;whiteSpace=wrap;html=1;container=1;collapsible=0;recursiveResize=0;outlineConnect=0;" vertex="1" parent="aC9V_nt8UgBJcs76mvsp-1">
                    <mxGeometry x="335" y="70" width="100" height="310" as="geometry"/>
                </mxCell>
                <mxCell id="aC9V_nt8UgBJcs76mvsp-3" value="" style="html=1;points=[];perimeter=orthogonalPerimeter;" vertex="1" parent="aC9V_nt8UgBJcs76mvsp-2">
                    <mxGeometry x="45" y="90" width="10" height="130" as="geometry"/>
                </mxCell>
                <mxCell id="aC9V_nt8UgBJcs76mvsp-6" value="Contact Service" style="shape=umlLifeline;perimeter=lifelinePerimeter;whiteSpace=wrap;html=1;container=1;collapsible=0;recursiveResize=0;outlineConnect=0;" vertex="1" parent="aC9V_nt8UgBJcs76mvsp-1">
                    <mxGeometry x="515" y="70" width="100" height="310" as="geometry"/>
                </mxCell>
                <mxCell id="aC9V_nt8UgBJcs76mvsp-7" value="" style="html=1;points=[];perimeter=orthogonalPerimeter;" vertex="1" parent="aC9V_nt8UgBJcs76mvsp-6">
                    <mxGeometry x="45" y="155" width="10" height="55" as="geometry"/>
                </mxCell>
                <mxCell id="aC9V_nt8UgBJcs76mvsp-8" value="person" style="html=1;verticalAlign=bottom;endArrow=open;dashed=1;endSize=8;exitX=0;exitY=0.95;" edge="1" parent="aC9V_nt8UgBJcs76mvsp-1" source="aC9V_nt8UgBJcs76mvsp-7" target="aC9V_nt8UgBJcs76mvsp-3">
                    <mxGeometry relative="1" as="geometry">
                        <mxPoint x="490" y="301" as="targetPoint"/>
                    </mxGeometry>
                </mxCell>
                <mxCell id="aC9V_nt8UgBJcs76mvsp-9" value="/person/id" style="html=1;verticalAlign=bottom;endArrow=block;entryX=0;entryY=0;exitX=1;exitY=0.492;exitDx=0;exitDy=0;exitPerimeter=0;" edge="1" parent="aC9V_nt8UgBJcs76mvsp-1" source="aC9V_nt8UgBJcs76mvsp-3" target="aC9V_nt8UgBJcs76mvsp-7">
                    <mxGeometry relative="1" as="geometry">
                        <mxPoint x="400" y="225" as="sourcePoint"/>
                    </mxGeometry>
                </mxCell>
                <mxCell id="aC9V_nt8UgBJcs76mvsp-10" value="Kafka" style="shape=umlLifeline;perimeter=lifelinePerimeter;whiteSpace=wrap;html=1;container=1;collapsible=0;recursiveResize=0;outlineConnect=0;" vertex="1" parent="aC9V_nt8UgBJcs76mvsp-1">
                    <mxGeometry x="170" y="70" width="100" height="300" as="geometry"/>
                </mxCell>
                <mxCell id="aC9V_nt8UgBJcs76mvsp-14" value="" style="html=1;points=[];perimeter=orthogonalPerimeter;" vertex="1" parent="aC9V_nt8UgBJcs76mvsp-10">
                    <mxGeometry x="45" y="75" width="10" height="25" as="geometry"/>
                </mxCell>
                <mxCell id="aC9V_nt8UgBJcs76mvsp-15" value="dispatch person event" style="html=1;verticalAlign=bottom;endArrow=block;entryX=0;entryY=0.023;entryDx=0;entryDy=0;entryPerimeter=0;" edge="1" parent="aC9V_nt8UgBJcs76mvsp-1" source="aC9V_nt8UgBJcs76mvsp-14" target="aC9V_nt8UgBJcs76mvsp-3">
                    <mxGeometry width="80" relative="1" as="geometry">
                        <mxPoint y="200" as="sourcePoint"/>
                        <mxPoint x="80" y="200" as="targetPoint"/>
                    </mxGeometry>
                </mxCell>
                <mxCell id="aC9V_nt8UgBJcs76mvsp-17" value="check relevance" style="edgeStyle=orthogonalEdgeStyle;html=1;align=left;spacingLeft=2;endArrow=block;rounded=0;entryX=1;entryY=0;" edge="1" parent="aC9V_nt8UgBJcs76mvsp-1">
                    <mxGeometry relative="1" as="geometry">
                        <mxPoint x="390" y="170" as="sourcePoint"/>
                        <Array as="points">
                            <mxPoint x="415" y="170"/>
                        </Array>
                        <mxPoint x="395" y="190" as="targetPoint"/>
                    </mxGeometry>
                </mxCell>
            </root>
        </mxGraphModel>
    </diagram>
</mxfile>